HIERARCHY
ROOT Hip
{
    OFFSET 0.0 0.0 0.0
    CHANNELS 6 Xposition Yposition Zposition Zrotation Xrotation Yrotation
    JOINT RightHip
    {
        OFFSET -0.10391198098659515 0.0 0.0
        CHANNELS 3 Zrotation Xrotation Yrotation
        JOINT RightKnee
        {
            OFFSET 0.0 0.0 -0.3754957318305969
            CHANNELS 3 Zrotation Xrotation Yrotation
            JOINT RightAnkle
            {
                OFFSET 0.0 0.0 -0.3515896201133728
                CHANNELS 3 Zrotation Xrotation Yrotation
                End Site
                {
                    OFFSET 0.0 -0.14063584804534912 0.0
                }
            }
        }
    }
    JOINT LeftHip
    {
        OFFSET 0.10391198098659515 0.0 0.0
        CHANNELS 3 Zrotation Xrotation Yrotation
        JOINT LeftKnee
        {
            OFFSET 0.0 0.0 -0.3754957318305969
            CHANNELS 3 Zrotation Xrotation Yrotation
            JOINT LeftAnkle
            {
                OFFSET 0.0 0.0 -0.3515896201133728
                CHANNELS 3 Zrotation Xrotation Yrotation
                End Site
                {
                    OFFSET 0.0 -0.14063584804534912 0.0
                }
            }
        }
    }
    JOINT Spine
    {
        OFFSET 0.0 0.0 0.22984717786312103
        CHANNELS 3 Zrotation Xrotation Yrotation
        JOINT Thorax
        {
            OFFSET 0.0 0.0 0.2518776059150696
            CHANNELS 3 Zrotation Xrotation Yrotation
            JOINT Neck
            {
                OFFSET 0.0 0.0 0.12475112080574036
                CHANNELS 3 Zrotation Xrotation Yrotation
                End Site
                {
                    OFFSET 0.0 0.0 0.04990044981241226
                }
            }
            JOINT LeftShoulder
            {
                OFFSET 0.13254651427268982 0.0 0.0
                CHANNELS 3 Zrotation Xrotation Yrotation
                JOINT LeftElbow
                {
                    OFFSET 0.2812025845050812 0.0 0.0
                    CHANNELS 3 Zrotation Xrotation Yrotation
                    JOINT LeftWrist
                    {
                        OFFSET 0.2280602604150772 0.0 0.0
                        CHANNELS 3 Zrotation Xrotation Yrotation
                        End Site
                        {
                            OFFSET 0.09122410416603088 0.0 0.0
                        }
                    }
                }
            }
            JOINT RightShoulder
            {
                OFFSET -0.13254651427268982 0.0 0.0
                CHANNELS 3 Zrotation Xrotation Yrotation
                JOINT RightElbow
                {
                    OFFSET -0.2812025845050812 0.0 0.0
                    CHANNELS 3 Zrotation Xrotation Yrotation
                    JOINT RightWrist
                    {
                        OFFSET -0.2280602604150772 0.0 0.0
                        CHANNELS 3 Zrotation Xrotation Yrotation
                        End Site
                        {
                            OFFSET -0.09122410416603088 0.0 0.0
                        }
                    }
                }
            }
        }
    }
}
MOTION
Frames: 7
Frame Time: 0.03333333333333333
1.6013509593904018e-06 2.8495214792201295e-06 -3.9212634874274954e-05 23.930954035207705 -10.544169509752647 -179.857312461081 -0.33580718563446377 -19.44357977617567 5.4412303679515075 2.9935628325560377 24.795876715176167 -8.47674436629664 3.776908684237926e-15 3.9311352967009226e-32 1.1927080055488188e-15 -0.29763780664446154 -18.018901628985795 -7.038021659321872 -2.2192489754871194 19.99230322507891 3.4784092799018196 -1.4908850069360234e-15 1.5902773407317584e-15 -7.951386703658792e-16 0.08040695220304407 4.924853807393919 -1.5505093533768433 -0.7144605318850085 -7.678340947995344e-07 9.071252162165795e-08 1.1494499461956658 -13.85271393858982 -2.1831734975234673 -49.79379236204558 -1.2878503881390189 77.06530812695061 -36.576116414999326 5.062971430902055e-06 -1.0620561114145029e-06 -6.361109362927033e-15 6.361109362927033e-15 -3.180554681463516e-15 9.513086132484785 2.4077770322692817 -66.93907891858171 35.42345017566742 -3.3568670990477788e-06 -5.853884196039849e-06 -1.517280289954742e-31 -3.1805546814635168e-15 -5.466578358765419e-15
1.3337084965314716e-06 2.933925543402438e-06 -3.902832395397127e-05 24.133292069759186 -10.6177942214856 179.7616989494741 -0.22657873700116085 -19.025563599493125 6.234497686722199 3.124397015642089 24.154017023540924 -8.680141274664967 -2.1866313435061676e-15 -1.517280289954742e-32 7.951386703658792e-16 -0.19831760864451367 -17.678104731764165 -6.423923509989535 -2.0946086314496237 19.882315317742595 2.9099339012253056 6.957463365701443e-16 -1.5902773407317584e-15 -3.975693351829396e-16 0.05452969083647427 4.872623475744256 -1.3221591263898138 -0.6155127387384499 -7.238847154614111e-07 -2.080887976320085e-08 1.2881554760935339 -13.421975135358611 -1.511162411767663 -51.763072094245096 -0.5482260203178245 76.24994559870255 -38.78261384356757 -1.7713522258582425e-06 1.5868301201409107e-06 6.3611093629270335e-15 6.3611093629270335e-15 -6.3611093629270335e-15 9.515492322148237 1.9038488416671053 -65.84215551904647 36.08709109017032 1.6742917009120478e-06 -2.3112553577404783e-06 0.0 0.0 3.9756933518293955e-16
1.6922676877584308e-06 2.977987833219231e-06 -3.896215639542788e-05 24.81962735070341 -10.838296583031715 179.82802362476716 -0.20635938799160275 -18.896001753551545 7.159328517206354 3.4776408883609444 23.89288072841195 -9.401293126384028 -5.963540027744096e-16 2.069018577211012e-33 -3.975693351829397e-16 -0.17442918702352 -17.036755088221035 -5.998757150870095 -1.884782036501893 19.171286059016715 2.459220191224154 -4.075085685625131e-15 2.827658722188383e-32 -7.951386703658792e-16 0.04856060035083655 4.73702029316748 -1.682755138842608 -0.5327217187697852 7.665354944344179e-07 -1.1740846496995215e-07 1.5626861394534208 -12.828936354669127 -0.34629070013008356 -52.33490831979696 -0.3250441269023292 75.69519285993802 -41.587962365579486 -8.503448425506943e-07 2.9886632715804502e-06 -3.1805546814635168e-15 -1.7655625192200634e-31 6.3611093629270335e-15 9.260279629534288 1.0620143222968603 -64.47190349996772 37.35920832061112 -3.5340143809286463e-06 6.986385523316009e-07 0.0 0.0 2.1866313435061676e-15
1.8970640667248517e-06 2.8842432584497146e-06 -3.959935565944761e-05 25.363685662199956 -10.82768231282337 179.97273175238735 -0.15295208962205953 -19.504674317394755 7.520128336781956 3.5530877234834954 23.851609900845034 -9.881812254239192 -2.7829853462805768e-15 1.9310840053969444e-32 -7.951386703658791e-16 -0.12473481565875535 -17.37755171860115 -6.221722301222377 -2.0189398695509597 19.11230067551019 2.9903826529993616 1.987846675914698e-16 6.896728590703373e-34 3.975693351829396e-16 0.03529575580746018 4.859628925523694 -2.0673717337656905 -0.4841998214619107 -3.93905695051011e-07 -4.841098741189691e-07 1.6957153652500783 -13.199725123848214 0.37400414404100357 -53.26921080897469 -0.1847082933476518 74.73691541153148 -45.19183951180268 -1.985098750778424e-06 -1.0098975564997883e-06 -9.541664044390549e-15 -2.648343778830095e-31 3.1805546814635164e-15 8.93357313523421 0.20832551023831894 -62.577166494873104 38.84744309134209 1.8022644472291501e-06 -3.380954930365547e-06 1.590277340731758e-15 -3.1805546814635164e-15 -7.75260203606732e-15
1.398617314407602e-06 2.682597823877586e-06 -3.961295442422852e-05 26.546589656666 -11.002132264658599 -179.81188616471817 -0.16413610291017275 -20.994070158430464 7.883127014545328 3.9089117291958564 24.932108017832622 -10.931677416935887 -9.93923337957349e-16 1.5902773407317584e-15 7.951386703658792e-16 -0.12661841111628902 -17.745087976739548 -6.548926522489764 -2.1470458711022395 19.21520656746564 3.1114602329224024 4.67143968839954e-15 -1.5902773407317584e-15 6.48292487526117e-32 0.03557370275635417 4.940117319701246 -2.429421532645521 -0.513558852358806 -1.268582126180868e-07 -2.398548862986989e-07 2.279733734215245 -13.608783381764818 0.6325383822221857 -52.487136462506754 -1.4916704843586022 74.43691133363204 -46.962391413615386 4.5426307794687416e-06 3.4103755803013846e-07 -4.4139062980501586e-32 1.5902773407317584e-15 3.1805546814635168e-15 7.565806066289234 -2.1481689194631555 -60.764285273716865 39.74366887849785 2.830292547743548e-06 3.7581096861144247e-06 0.0 0.0 7.752602036067322e-15
2.0201441657263786e-06 2.8727886274282355e-06 -4.130159868509509e-05 27.00031402133499 -10.903166163587347 179.9587263728982 -0.04043579623591038 -22.556969425218366 8.626202950583531 4.563212449173269 27.37943280065559 -11.85968089333685 -1.1927080055488186e-15 -3.1805546814635164e-15 -3.310429723537619e-32 -0.0223060942041372 -18.946393050407803 -6.072366474317213 -2.2770077125035413 20.688635871761555 3.2288676572589483 7.95138670365879e-16 0.0 0.0 0.007030213817675484 4.962334243979573 -2.7793510278287217 -0.7033592091738046 1.307655312652768e-07 1.9884449564656833e-07 3.832273865196089 -13.464720236510697 1.7466824418063185 -51.85206653300976 -2.9861126521096057 74.1565279923559 -51.13515485700529 -2.99763442735921e-06 -4.24746108277665e-06 -2.2069531490250793e-31 7.951386703658793e-15 3.1805546814635176e-15 4.8438277107371635 -4.081042638281874 -58.41686754087004 41.87115416465396 -4.442747904705911e-06 -5.0470595769903715e-06 1.5902773407317584e-15 3.862168010793889e-32 2.782985346280577e-15
3.1132440199144185e-06 2.856885203073034e-06 -4.1951643652282655e-05 27.67525316202069 -10.965104822496285 179.6119572398879 0.18709004824124625 -23.257199237828168 10.016177014689731 5.093775786991574 27.83696377171557 -13.269106641527003 7.951386703658792e-16 1.5902773407317584e-15 -1.1034765745125397e-32 0.16150819002403527 -19.01926598245692 -5.558801785210524 -2.3564047405445825 21.181828035591753 2.86580938631736 -2.087239009710433e-15 1.4483130040477084e-32 -7.951386703658792e-16 -0.04014917095311881 5.07449829152418 -2.998744616316961 -0.6692271827053258 -5.687932422256351e-07 6.264099764659441e-07 5.784302121261851 -12.862223969441398 2.7746683365210467 -52.21427677853231 -4.61662078642672 73.42310026620328 -55.13200953652583 5.30662821722737e-07 -9.241776233519031e-07 -3.1805546814635176e-15 1.5902773407317588e-15 3.1805546814635176e-15 3.4712753272451025 -6.437114698950262 -56.27993564868976 45.122705197865315 1.8880455033179893e-06 1.6415085865368288e-06 1.5902773407317584e-15 -3.1805546814635168e-15 2.3854160110976376e-15
